<?xml version="1.0" encoding="UTF-8"?><svg id="Layer_1" xmlns="http://www.w3.org/2000/svg" viewBox="0 0 271.89453 566.92913"><defs><style>.cls-1{fill:#d24699;stroke-width:0px;}</style></defs><g id="RectangleA-logomark"><path class="cls-1" d="m23.13991,358.66941H0V75.20484c0-20.08805,7.82262-38.97362,22.02692-53.17792C36.23123,7.82262,55.1168,0,75.20484,0h23.13991v283.46457c0,20.08805-7.82262,38.97362-22.02692,53.17792-14.20447,14.2043-33.09004,22.02692-53.17792,22.02692Zm-11.57004-11.56987h11.57004c35.08841,0,63.63497-28.54656,63.63497-63.63497V11.56987h-11.57004c-35.08841,0-63.63497,28.54656-63.63497,63.63497v271.8947Z"/><path class="cls-1" d="m196.68968,185.11964h-109.9148V0h144.62475c22.32894,0,40.49489,18.16595,40.49489,40.49489v69.41991c0,20.08788-7.82262,38.97362-22.02692,53.17792-14.20447,14.2043-33.09004,22.02692-53.17792,22.02692Zm-98.34493-11.56987h98.34493c35.08841,0,63.63497-28.54656,63.63497-63.63497V40.49489c0-15.94929-12.97573-28.92502-28.92502-28.92502H98.34476v161.9799Z"/><circle class="cls-1" cx="237.18455" cy="34.7099" r="28.92496"/><path class="cls-1" d="m237.18457,63.77937c-16.02912,0-29.06959-13.04047-29.06959-29.06942s13.04047-29.06959,29.06959-29.06959,29.06959,13.04047,29.06959,29.06959-13.04047,29.06942-29.06959,29.06942Zm0-57.84987c-15.86963,0-28.78045,12.91081-28.78045,28.78045s12.91081,28.78028,28.78045,28.78028,28.78045-12.91081,28.78045-28.78028-12.91081-28.78045-28.78045-28.78045Z"/><circle class="cls-1" cx="121.4847" cy="34.7099" r="14.46248"/><path class="cls-1" d="m121.48467,49.31695c-8.0543,0-14.60699-6.55269-14.60699-14.60699s6.55269-14.60716,14.60699-14.60716,14.60716,6.55269,14.60716,14.60716-6.55269,14.60699-14.60716,14.60699Zm0-28.92502c-7.89482,0-14.31786,6.42304-14.31786,14.31803s6.42304,14.31786,14.31786,14.31786,14.31803-6.42304,14.31803-14.31786-6.42304-14.31803-14.31803-14.31803Z"/><path class="cls-1" d="m196.68968,566.92913h-23.13991v-283.46457c0-20.08805,7.82262-38.97362,22.02692-53.17792,14.2043-14.2043,33.08987-22.02692,53.17792-22.02692h23.13991v283.46457c0,20.08805-7.82262,38.97362-22.02692,53.17792-14.20447,14.2043-33.09004,22.02692-53.17792,22.02692Zm-11.57004-11.56987h11.57004c35.08841,0,63.63497-28.54656,63.63497-63.63497V219.82959h-11.57004c-35.08841,0-63.63497,28.54656-63.63497,63.63497v271.8947Z"/><path class="cls-1" d="m185.11964,566.92913h-109.9148c-20.08788,0-38.97362-7.82262-53.17792-22.02692-14.2043-14.2043-22.02692-33.09004-22.02692-53.17792v-69.41991c0-22.32894,18.16595-40.49489,40.49489-40.49489h144.62475v185.11964ZM40.49489,393.37936c-15.94929,0-28.92502,12.97573-28.92502,28.92502v69.41991c0,35.08841,28.54656,63.63497,63.63497,63.63497h98.34493v-161.9799H40.49489Z"/><circle class="cls-1" cx="34.70982" cy="416.51939" r="28.92496"/><path class="cls-1" d="m34.70978,445.58886c-16.02895,0-29.06942-13.04047-29.06942-29.06942s13.04047-29.06959,29.06942-29.06959,29.06959,13.04047,29.06959,29.06959-13.04047,29.06942-29.06959,29.06942Zm0-57.84987c-15.86947,0-28.78028,12.91081-28.78028,28.78045s12.91081,28.78028,28.78028,28.78028,28.78045-12.91081,28.78045-28.78028-12.91081-28.78045-28.78045-28.78045Z"/><circle class="cls-1" cx="150.40966" cy="416.51939" r="14.46248"/><path class="cls-1" d="m150.40969,431.12644c-8.0543,0-14.60699-6.55269-14.60699-14.60699s6.55269-14.60716,14.60699-14.60716,14.60699,6.55269,14.60699,14.60716-6.55269,14.60699-14.60699,14.60699Zm0-28.92502c-7.89482,0-14.31786,6.42304-14.31786,14.31803s6.42304,14.31786,14.31786,14.31786,14.31786-6.42304,14.31786-14.31786-6.42304-14.31803-14.31786-14.31803Z"/></g></svg>